<svg width="203" height="47" viewBox="0 0 203 47" fill="none" xmlns="http://www.w3.org/2000/svg">
<g clip-path="url(#clip0_476_1802)">
<path d="M27.0778 21.233C27.5238 23.1238 27.8261 25.0298 27.7619 26.9854C27.6069 31.5385 25.9894 35.5491 23.3477 39.1777C21.4203 41.8248 19.0733 44.044 16.4278 45.9423C15.1845 46.8361 13.7068 46.6375 12.9055 45.4916C12.093 44.3266 12.3802 42.8866 13.6198 41.9814C15.7249 40.4459 17.6372 38.7003 19.2169 36.6071C22.2706 32.5545 23.684 28.0893 22.5465 22.9863C22.4558 22.7342 22.3613 22.4821 22.2706 22.23C21.7831 20.8816 21.2086 19.5868 20.1807 18.5517C19.7196 17.7686 19.0242 17.2071 18.3212 16.6724C15.7287 14.7053 12.743 13.9299 9.55711 13.8879C7.96603 13.865 6.42409 14.1476 5.17315 15.282L4.98419 15.4501H5.01064C4.8179 15.4119 4.68184 15.5112 4.56091 15.6411C3.02652 17.3065 3.07565 20.1903 4.52689 21.7907C5.13536 22.463 5.92145 22.8488 6.62439 23.3682C3.13612 22.4668 0.441497 19.9305 0.0635694 17.0696C-0.276565 14.4837 0.766514 12.509 2.75441 11.0002C4.48532 9.68626 6.51479 9.13623 8.63119 9.06747C13.6425 8.89941 18.223 10.1637 22.1308 13.4944C23.2683 14.4646 24.1565 15.6487 25.0786 16.8137C25.8458 18.2423 26.5412 19.7052 27.0816 21.2407L27.0778 21.233Z" fill="url(#paint0_linear_476_1802)"/>
<path d="M6.6298 23.3721C5.92685 22.8526 5.14076 22.4668 4.5323 21.7945C3.08106 20.1941 3.03193 17.3103 4.56631 15.6449C4.68725 15.515 4.8233 15.4157 5.01605 15.4501C4.68725 16.3363 4.80441 16.8099 5.56404 17.4707C6.53909 18.3187 7.71823 18.7426 8.95027 19.0138C12.7295 19.8427 16.471 19.4989 20.1823 18.5517C21.2102 19.583 21.7847 20.8816 22.2722 22.23C22.3629 22.4821 22.4574 22.7342 22.5481 22.9863C20.5338 23.4446 18.5383 23.9756 16.4748 24.1704C13.2964 24.4683 10.1445 24.4454 7.05307 23.5057C6.95859 23.3568 6.81498 23.353 6.66759 23.3721H6.6298Z" fill="#5457A6"/>
<path d="M30.4119 10.0568C29.2101 10.0186 28.0839 10.328 26.9954 10.8245C25.6802 11.4204 24.4066 10.9735 23.9115 9.76264C23.4127 8.548 23.9947 7.34099 25.3136 6.77568C27.0559 6.02703 28.8397 5.58013 30.752 5.72528C34.7845 6.03085 37.1617 9.77792 35.718 13.5899C35.2456 14.8313 34.5578 15.9352 33.5714 16.8328C33.4844 16.6456 33.5903 16.5081 33.6847 16.3592C34.3348 15.3088 34.4028 14.1743 34.0853 13.0132C33.6734 11.5006 32.2864 10.1217 31.0506 10.2172C31.0506 10.2172 31.0166 10.2172 31.0128 10.2172C30.8578 9.988 30.6084 10.114 30.4081 10.0606L30.4119 10.0568Z" fill="#45A0D9"/>
<path d="M31.0493 10.2134C32.2851 10.1179 33.6721 11.4968 34.084 13.0093C34.3977 14.1705 34.3334 15.305 33.6834 16.3554C33.5889 16.5043 33.4831 16.6418 33.57 16.829H33.5587C33.4415 16.829 33.3962 16.8748 33.4378 16.9894L33.4264 17.0123C33.2375 16.955 33.2186 17.0849 33.1959 17.2186C33.1468 17.2644 33.0976 17.3064 33.0485 17.3523C31.3327 19.0749 29.239 20.2094 27.0772 21.2369C26.5368 19.7014 25.8414 18.2384 25.0742 16.8099C26.6162 16.1147 28.109 15.3355 29.5111 14.3844C30.2858 13.8573 31.0228 13.2767 31.499 12.444C32.0319 11.512 31.8845 10.8474 31.0455 10.2172L31.0493 10.2134Z" fill="#5457A6"/>
<path d="M18.0465 0.500007C19.9588 0.496187 21.497 2.03932 21.4667 3.93769C21.4365 5.82841 19.9361 7.34099 18.0767 7.34863C16.1871 7.35627 14.6338 5.7864 14.6565 3.89567C14.6792 1.99731 16.172 0.500007 18.0465 0.500007Z" fill="#5457A6"/>
<path d="M30.3945 10.0491C30.6062 10.1064 30.8669 9.97654 31.0294 10.2172C30.8178 10.1599 30.6062 10.1064 30.3945 10.0491Z" fill="#45A0D9"/>
<path d="M33.1953 17.2148C33.2142 17.0811 33.2369 16.9512 33.4258 17.0085C33.3503 17.0773 33.2747 17.146 33.1953 17.2148Z" fill="#5457A6"/>
<path d="M33.4365 16.9894C33.3949 16.8748 33.4441 16.8252 33.5574 16.829C33.5159 16.8825 33.4781 16.9359 33.4365 16.9894Z" fill="#5457A6"/>
<path d="M48.721 24.4073C47.7233 24.4073 46.8767 24.2316 46.1738 23.884C45.4708 23.5364 44.9039 23.078 44.4693 22.5089C44.0347 21.9398 43.7172 21.3248 43.5132 20.664C43.3091 20.0032 43.207 19.3653 43.207 18.7542V18.4219C43.207 17.7458 43.3129 17.0774 43.5207 16.4127C43.7286 15.7481 44.0498 15.1446 44.4844 14.5984C44.919 14.056 45.4822 13.6168 46.1738 13.2844C46.8654 12.9521 47.6855 12.7841 48.6341 12.7841C49.5827 12.7841 50.4746 12.9598 51.1889 13.3112C51.9031 13.6626 52.4776 14.1553 52.9009 14.7856C53.3242 15.4158 53.5774 16.1568 53.6567 17.0124H51.8465C51.7671 16.4471 51.5781 15.9773 51.2871 15.5992C50.9923 15.221 50.6182 14.9384 50.1647 14.7436C49.7112 14.5526 49.201 14.4571 48.6341 14.4571C48.0672 14.4571 47.5267 14.564 47.0732 14.7741C46.6197 14.9842 46.2456 15.2783 45.9432 15.6488C45.6447 16.0231 45.4179 16.4586 45.263 16.9551C45.108 17.4517 45.0324 18.0017 45.0324 18.5938C45.0324 19.1858 45.108 19.69 45.263 20.1865C45.4179 20.6869 45.6484 21.1262 45.9583 21.5081C46.2682 21.8901 46.6537 22.188 47.1186 22.3981C47.5834 22.6082 48.1163 22.7152 48.7248 22.7152C49.6016 22.7152 50.3385 22.4974 50.9356 22.0582C51.5328 21.6189 51.8956 20.9925 52.0279 20.1789H53.8533C53.755 20.9543 53.4942 21.6609 53.0747 22.3026C52.6552 22.9405 52.0845 23.4523 51.3551 23.8305C50.6257 24.2086 49.749 24.3958 48.7248 24.3958L48.721 24.4073Z" fill="#5459A7"/>
<path d="M60.8165 24.4072C59.8301 24.4072 58.9797 24.2315 58.2692 23.8839C57.5549 23.5363 56.9654 23.0741 56.4967 22.5012C56.0281 21.9282 55.6804 21.3094 55.4574 20.6486C55.2345 19.9878 55.1211 19.3576 55.1211 18.7541V18.4218C55.1211 17.7572 55.2382 17.0925 55.4726 16.4279C55.7069 15.7633 56.0621 15.156 56.5345 14.606C57.0069 14.0559 57.6003 13.6167 58.3146 13.2844C59.0289 12.952 59.8603 12.784 60.8165 12.784C61.7726 12.784 62.6041 12.952 63.3146 13.2844C64.0251 13.6167 64.6146 14.0559 65.0946 14.606C65.5746 15.156 65.9298 15.7633 66.1641 16.4279C66.3984 17.0925 66.5156 17.7572 66.5156 18.4218V18.7541C66.5156 19.3576 66.4022 19.9917 66.1717 20.6486C65.9412 21.3094 65.5972 21.9244 65.1324 22.5012C64.6675 23.0741 64.078 23.5363 63.3599 23.8839C62.6418 24.2315 61.7953 24.4072 60.8202 24.4072H60.8165ZM60.8165 22.7303C61.4136 22.7303 61.954 22.6196 62.4302 22.398C62.9064 22.1765 63.3183 21.8747 63.6547 21.4928C63.9948 21.1108 64.2518 20.6716 64.4257 20.1788C64.5995 19.6861 64.6864 19.1628 64.6864 18.6089C64.6864 18.0245 64.5957 17.4821 64.4181 16.9856C64.2405 16.489 63.9835 16.0498 63.6471 15.6716C63.3146 15.2935 62.9064 14.9994 62.4302 14.7893C61.954 14.5792 61.4136 14.4723 60.8165 14.4723C60.2193 14.4723 59.6789 14.5792 59.2027 14.7893C58.7265 14.9994 58.3146 15.2973 57.9782 15.6716C57.6381 16.0498 57.3811 16.489 57.2072 16.9856C57.0334 17.486 56.9465 18.0245 56.9465 18.6089C56.9465 19.1933 57.0334 19.6861 57.2072 20.1788C57.3811 20.6716 57.6381 21.1108 57.9782 21.4928C58.3184 21.8747 58.7265 22.1765 59.2027 22.398C59.6789 22.6196 60.2193 22.7303 60.8165 22.7303Z" fill="#5459A7"/>
<path d="M68.7344 24.136V13.1087H71.6633L76.7313 22.5814H77.2226L76.9241 22.8526V13.1087H78.6285V24.136H75.6693L70.6013 14.6633H70.11L70.4086 14.3921V24.136H68.7344Z" fill="#5459A7"/>
<path d="M85.1966 24.4072C84.2593 24.4072 83.4657 24.2544 82.8119 23.945C82.158 23.6394 81.663 23.2154 81.3228 22.6769C80.9827 22.1383 80.8164 21.5272 80.8164 20.8396H82.5813C82.5813 21.1528 82.6645 21.4584 82.8345 21.7602C83.0046 22.0619 83.2767 22.3102 83.6584 22.5088C84.0364 22.7036 84.5503 22.8029 85.1966 22.8029C85.7862 22.8029 86.2699 22.7189 86.6554 22.547C87.0371 22.3751 87.3243 22.1498 87.5057 21.8671C87.6909 21.5845 87.7816 21.2712 87.7816 20.9313C87.7816 20.5073 87.604 20.1635 87.245 19.8962C86.8859 19.6288 86.3493 19.4645 85.6312 19.4034L84.539 19.2965C83.5337 19.2163 82.7287 18.9031 82.1316 18.353C81.5345 17.803 81.2359 17.0811 81.2359 16.1835C81.2359 15.4998 81.3984 14.9039 81.7234 14.3997C82.0485 13.8955 82.502 13.5021 83.0915 13.2118C83.6773 12.9253 84.3614 12.7802 85.1399 12.7802C85.9184 12.7802 86.6289 12.9253 87.2185 13.2118C87.8081 13.4983 88.2616 13.9031 88.5866 14.4226C88.9116 14.9421 89.0741 15.557 89.0741 16.2713H87.3092C87.3092 15.9505 87.2298 15.6449 87.0787 15.3584C86.9237 15.072 86.6856 14.8351 86.3682 14.6556C86.0507 14.4761 85.6425 14.3844 85.1437 14.3844C84.6448 14.3844 84.2707 14.4684 83.957 14.6403C83.6433 14.8122 83.4052 15.0338 83.2465 15.305C83.0878 15.5761 83.0084 15.8703 83.0084 16.1797C83.0084 16.554 83.1482 16.8825 83.4279 17.1689C83.7076 17.4554 84.1346 17.6235 84.7128 17.677L85.7899 17.7686C86.5571 17.8297 87.2223 17.994 87.7854 18.2614C88.3485 18.5287 88.7869 18.884 89.1006 19.327C89.4143 19.7701 89.573 20.3049 89.573 20.9275C89.573 21.6112 89.3916 22.2185 89.0288 22.7418C88.666 23.2651 88.1558 23.6738 87.5057 23.9641C86.8519 24.2544 86.0885 24.4034 85.2117 24.4034L85.1966 24.4072Z" fill="#5459A7"/>
<path d="M90.3789 14.7091V13.1087H98.6442V14.7091H90.3789ZM93.6102 24.136V14.4073H95.4053V24.136H93.6102Z" fill="#5459A7"/>
<path d="M100.469 24.136V13.0323H102.264V24.136H100.469ZM101.678 20.2972V18.7732H104.516C104.943 18.7732 105.314 18.6853 105.624 18.5096C105.934 18.3339 106.168 18.0895 106.334 17.7763C106.497 17.4631 106.58 17.1002 106.58 16.6877C106.58 16.2752 106.497 15.9276 106.334 15.6144C106.168 15.3011 105.934 15.0567 105.624 14.8733C105.314 14.69 104.947 14.6021 104.516 14.6021H101.678V13.0323H104.278C105.113 13.0323 105.843 13.1621 106.459 13.4181C107.075 13.674 107.555 14.0598 107.895 14.5754C108.235 15.0911 108.401 15.748 108.401 16.554V16.7946C108.401 17.6006 108.228 18.2614 107.887 18.7732C107.544 19.285 107.064 19.6708 106.451 19.9229C105.839 20.175 105.113 20.3011 104.278 20.3011H101.678V20.2972ZM107.166 24.136L103.696 19.285H105.729L109.301 24.136H107.162H107.166Z" fill="#5459A7"/>
<path d="M115.419 24.4072C114.414 24.4072 113.567 24.2124 112.887 23.8266C112.203 23.4408 111.685 22.8908 111.334 22.188C110.979 21.4813 110.805 20.6601 110.805 19.7243V13.1087H112.6V19.8771C112.6 20.4424 112.709 20.9389 112.929 21.3744C113.148 21.806 113.465 22.1421 113.885 22.3789C114.304 22.6158 114.814 22.7342 115.423 22.7342C116.031 22.7342 116.542 22.6196 116.954 22.3866C117.366 22.1536 117.683 21.8213 117.902 21.3897C118.121 20.958 118.231 20.4538 118.231 19.8771V13.1087H120.026V19.7243C120.026 20.6601 119.852 21.4813 119.505 22.188C119.157 22.8946 118.639 23.4408 117.959 23.8266C117.275 24.2162 116.432 24.4072 115.427 24.4072H115.419Z" fill="#5459A7"/>
<path d="M127.573 24.4072C126.575 24.4072 125.728 24.2315 125.025 23.8839C124.322 23.5363 123.755 23.0779 123.321 22.5088C122.886 21.9397 122.569 21.3247 122.365 20.6639C122.161 20.0031 122.059 19.3652 122.059 18.7541V18.4218C122.059 17.7457 122.164 17.0773 122.372 16.4126C122.58 15.748 122.901 15.1445 123.336 14.5983C123.771 14.0559 124.334 13.6167 125.025 13.2844C125.717 12.952 126.537 12.784 127.486 12.784C128.434 12.784 129.326 12.9597 130.04 13.3111C130.755 13.6625 131.329 14.1552 131.752 14.7855C132.176 15.4157 132.429 16.1567 132.508 17.0123H130.698C130.619 16.447 130.43 15.9772 130.139 15.5991C129.844 15.2209 129.47 14.9383 129.016 14.7435C128.563 14.5525 128.053 14.457 127.486 14.457C126.919 14.457 126.378 14.5639 125.925 14.774C125.471 14.9841 125.093 15.2782 124.795 15.6487C124.496 16.023 124.269 16.4585 124.115 16.955C123.96 17.4516 123.884 18.0016 123.884 18.5937C123.884 19.1857 123.96 19.6899 124.115 20.1865C124.269 20.6868 124.5 21.1261 124.81 21.5081C125.12 21.89 125.505 22.188 125.966 22.398C126.431 22.6081 126.964 22.7151 127.573 22.7151C128.449 22.7151 129.186 22.4973 129.783 22.0581C130.381 21.6188 130.743 20.9924 130.876 20.1788H132.701C132.603 20.9542 132.342 21.6608 131.923 22.3025C131.503 22.9404 130.932 23.4523 130.203 23.8304C129.474 24.2085 128.597 24.3957 127.573 24.3957V24.4072Z" fill="#5459A7"/>
<path d="M133.488 14.7091V13.1087H141.754V14.7091H133.488ZM136.716 24.136V14.4073H138.511V24.136H136.716Z" fill="#5459A7"/>
<path d="M141.578 24.136L145.407 13.1087H148.381L152.326 24.136H150.475L147.02 14.3157L147.753 14.6633H145.943L146.722 14.3157L143.373 24.136H141.578ZM144.057 21.023L144.624 19.4531H149.197L149.779 21.023H144.054H144.057Z" fill="#5459A7"/>
<path d="M154.133 24.136V13.1087H155.928V24.136H154.133ZM155.629 24.136V22.5203H160.486V24.136H155.629Z" fill="#5459A7"/>
<path d="M165.66 24.136V13.0323H167.455V24.136H165.66ZM167.153 20.5226V18.9374H169.424C169.904 18.9374 170.297 18.8458 170.611 18.6586C170.925 18.4714 171.167 18.2155 171.337 17.887C171.507 17.5585 171.59 17.188 171.59 16.7755C171.59 16.363 171.507 15.9772 171.337 15.6487C171.167 15.3202 170.925 15.0681 170.611 14.8848C170.297 14.7053 169.9 14.6136 169.424 14.6136H167.153V13.0284H169.216C170.123 13.0284 170.887 13.1774 171.51 13.4753C172.134 13.7733 172.606 14.1896 172.931 14.7282C173.256 15.2668 173.419 15.9085 173.419 16.6533V16.8939C173.419 17.6273 173.256 18.269 172.931 18.8114C172.606 19.3538 172.134 19.7778 171.51 20.0719C170.887 20.3698 170.123 20.5188 169.216 20.5188H167.153V20.5226Z" fill="#33CCFF"/>
<path d="M175.359 24.136V13.1087H177.155V24.136H175.359ZM176.852 24.136V22.5203H181.709V24.136H176.852Z" fill="#33CCFF"/>
<path d="M187.677 24.4072C186.672 24.4072 185.825 24.2124 185.145 23.8266C184.461 23.4408 183.943 22.8908 183.592 22.188C183.236 21.4813 183.062 20.6601 183.062 19.7243V13.1087H184.858V19.8771C184.858 20.4424 184.967 20.9389 185.186 21.3744C185.406 21.8098 185.723 22.1421 186.143 22.3789C186.562 22.6158 187.076 22.7342 187.681 22.7342C188.285 22.7342 188.799 22.6196 189.211 22.3866C189.623 22.1536 189.941 21.8213 190.16 21.3897C190.379 20.958 190.489 20.4538 190.489 19.8771V13.1087H192.284V19.7243C192.284 20.6601 192.11 21.4813 191.762 22.188C191.415 22.8946 190.897 23.4408 190.217 23.8266C189.533 24.2162 188.69 24.4072 187.685 24.4072H187.677Z" fill="#33CCFF"/>
<path d="M198.634 24.4072C197.697 24.4072 196.903 24.2544 196.249 23.945C195.596 23.6394 195.1 23.2154 194.76 22.6769C194.42 22.1383 194.254 21.5272 194.254 20.8396H196.019C196.019 21.1528 196.102 21.4584 196.272 21.7602C196.442 22.0619 196.714 22.3102 197.092 22.5088C197.47 22.7036 197.984 22.8029 198.63 22.8029C199.22 22.8029 199.704 22.7189 200.089 22.547C200.471 22.3751 200.758 22.1498 200.939 21.8671C201.125 21.5845 201.215 21.2712 201.215 20.9313C201.215 20.5073 201.038 20.1635 200.679 19.8962C200.32 19.6288 199.783 19.4645 199.065 19.4034L197.973 19.2965C196.967 19.2163 196.162 18.9031 195.565 18.353C194.968 17.803 194.67 17.0811 194.67 16.1835C194.67 15.4998 194.832 14.9039 195.157 14.3997C195.482 13.8955 195.936 13.5021 196.525 13.2118C197.115 12.9253 197.795 12.7802 198.574 12.7802C199.352 12.7802 200.063 12.9253 200.652 13.2118C201.242 13.4983 201.695 13.9031 202.02 14.4226C202.345 14.9421 202.508 15.557 202.508 16.2713H200.743C200.743 15.9505 200.664 15.6449 200.512 15.3584C200.357 15.072 200.119 14.8351 199.802 14.6556C199.484 14.4761 199.076 14.3844 198.577 14.3844C198.079 14.3844 197.704 14.4684 197.391 14.6403C197.077 14.8122 196.839 15.0338 196.68 15.305C196.521 15.5761 196.442 15.8703 196.442 16.1797C196.442 16.554 196.582 16.8825 196.862 17.1689C197.141 17.4554 197.568 17.6235 198.147 17.677L199.224 17.7686C199.991 17.8297 200.656 17.994 201.219 18.2614C201.782 18.5287 202.221 18.884 202.534 19.327C202.848 19.7701 203.007 20.3049 203.007 20.9275C203.007 21.6112 202.825 22.2185 202.462 22.7418C202.1 23.2651 201.589 23.6738 200.939 23.9641C200.286 24.2544 199.522 24.4034 198.645 24.4034L198.634 24.4072Z" fill="#33CCFF"/>
<path d="M43.2578 34.2733V29.5599H43.4619V34.2733H43.2578ZM43.341 32.3291V32.1343H44.5881C44.8905 32.1343 45.1286 32.0808 45.3062 31.9739C45.4838 31.8669 45.6085 31.7218 45.6879 31.5423C45.7673 31.3628 45.805 31.1641 45.805 30.9426C45.805 30.7211 45.7673 30.5224 45.6879 30.3429C45.6085 30.1634 45.4838 30.0182 45.3062 29.9113C45.1286 29.8043 44.8905 29.7509 44.5881 29.7509H43.341V29.5561H44.5768C44.9207 29.5561 45.1966 29.6172 45.4082 29.7432C45.6199 29.8693 45.771 30.0335 45.8655 30.2398C45.96 30.446 46.0091 30.6676 46.0091 30.9082V30.9731C46.0091 31.2138 45.96 31.4353 45.8655 31.6416C45.771 31.8478 45.6161 32.0121 45.4082 32.1381C45.1966 32.2642 44.9207 32.3253 44.5768 32.3253H43.341V32.3291ZM46.1754 34.2733L44.4861 32.226H44.7355L46.4286 34.2733H46.1754Z" fill="black"/>
<path d="M48.5981 34.3765C48.3222 34.3765 48.0804 34.3268 47.8801 34.2275C47.676 34.1282 47.5097 33.9945 47.3774 33.8264C47.2451 33.6584 47.1469 33.4674 47.0826 33.2535C47.0184 33.0396 46.9844 32.8219 46.9844 32.6003V32.5621C46.9844 32.3444 47.0184 32.1305 47.0826 31.9242C47.1469 31.718 47.2489 31.5308 47.3812 31.3628C47.5135 31.1947 47.6798 31.0648 47.8801 30.9655C48.0766 30.87 48.3071 30.8204 48.5641 30.8204C48.8854 30.8204 49.1612 30.8968 49.388 31.0457C49.6147 31.1947 49.7886 31.3895 49.9095 31.6301C50.0305 31.8708 50.0909 32.119 50.0909 32.3864V32.5927H47.0902V32.3979H49.9813L49.8982 32.4628C49.8982 32.1916 49.8453 31.9472 49.7395 31.7294C49.6336 31.5117 49.4787 31.336 49.2822 31.2061C49.0819 31.0763 48.8438 31.0113 48.5603 31.0113C48.2542 31.0113 47.9972 31.0839 47.7931 31.2291C47.5891 31.3742 47.4303 31.5652 47.3283 31.802C47.2263 32.0388 47.1733 32.2947 47.1733 32.5736C47.1733 32.8524 47.2263 33.1198 47.3283 33.3642C47.4303 33.6087 47.5891 33.8035 47.8007 33.9525C48.0123 34.1014 48.2769 34.1778 48.6019 34.1778C48.9496 34.1778 49.2293 34.0938 49.4447 33.9295C49.6563 33.7653 49.7886 33.5629 49.8377 33.326H50.0418C50.0002 33.5285 49.9133 33.708 49.7886 33.8646C49.6601 34.0212 49.4976 34.1435 49.3011 34.2351C49.1045 34.3268 48.8702 34.3688 48.6019 34.3688L48.5981 34.3765Z" fill="black"/>
<path d="M51.1055 34.2733V30.9235H51.2718V32.2642H51.1962C51.1962 31.9892 51.2453 31.7447 51.3436 31.5308C51.4418 31.3169 51.5854 31.145 51.7744 31.0228C51.9634 30.8968 52.1977 30.8356 52.4773 30.8356H52.4887C52.9044 30.8356 53.2219 30.9655 53.4335 31.2291C53.6489 31.4926 53.7547 31.8364 53.7547 32.2642V34.2733H53.5507V32.2107C53.5507 31.8593 53.46 31.5728 53.2748 31.3551C53.0896 31.1374 52.8213 31.0266 52.4698 31.0266C52.1183 31.0266 51.8311 31.1374 51.6232 31.3628C51.4154 31.5843 51.3096 31.8784 51.3096 32.2375V34.2733H51.1055Z" fill="black"/>
<path d="M54.5078 31.103V30.9235H56.6733V31.103H54.5078ZM56.1102 34.3039C55.9213 34.3039 55.7588 34.2733 55.6151 34.216C55.4715 34.1587 55.3619 34.0594 55.2826 33.9219C55.2032 33.7844 55.1654 33.6011 55.1654 33.3757V29.7891H55.3695V33.4292C55.3695 33.6469 55.43 33.815 55.5471 33.9334C55.6643 34.0518 55.8306 34.1091 56.0422 34.1091H56.6733V34.3039H56.1065H56.1102Z" fill="black"/>
<path d="M58.555 34.3612C58.3472 34.3612 58.1544 34.323 57.9768 34.2428C57.7992 34.1626 57.6593 34.048 57.5573 33.8914C57.4515 33.7386 57.4023 33.5476 57.4023 33.3261C57.4023 33.1236 57.4515 32.9479 57.546 32.7989C57.6404 32.65 57.7803 32.5316 57.9579 32.4514C58.1355 32.3711 58.3509 32.3291 58.6079 32.3291H59.7228V32.5087H58.5701C58.2602 32.5087 58.0221 32.585 57.8559 32.734C57.6896 32.883 57.6064 33.0854 57.6064 33.3337C57.6064 33.6011 57.6971 33.8073 57.8785 33.9601C58.0599 34.1091 58.2905 34.1855 58.5664 34.1855C58.744 34.1855 58.9178 34.1511 59.0879 34.0823C59.258 34.0136 59.4016 33.8952 59.5187 33.7309C59.6359 33.5667 59.6964 33.3452 59.7077 33.0663L59.8097 33.1695C59.8022 33.4406 59.7379 33.666 59.617 33.8417C59.4998 34.0212 59.3449 34.1511 59.1597 34.239C58.9745 34.323 58.7704 34.3688 58.5512 34.3688L58.555 34.3612ZM59.7455 34.2733V33.2688H59.7077V32.0083C59.7077 31.7218 59.6321 31.4964 59.4809 31.3322C59.3298 31.168 59.0728 31.0877 58.7062 31.0877C58.5966 31.0877 58.487 31.0877 58.3774 31.0992C58.2678 31.1068 58.1658 31.1145 58.0713 31.1221C57.9768 31.1298 57.8861 31.1412 57.8067 31.1527V30.9579C57.8899 30.9464 57.9806 30.935 58.0675 30.9235C58.1582 30.912 58.2451 30.9044 58.3396 30.9006C58.4341 30.8968 58.5172 30.8929 58.6042 30.8929C58.9367 30.8929 59.1975 30.9388 59.3865 31.0266C59.5754 31.1183 59.7115 31.2482 59.7908 31.4201C59.8702 31.5919 59.9118 31.8058 59.9118 32.0579V34.2733H59.7455Z" fill="black"/>
<path d="M60.7422 29.7661V29.5713H61.4678V29.7661H60.7422ZM61.2675 34.2733V29.5713H61.4716V34.2733H61.2675Z" fill="black"/>
<path d="M71.027 34.3764C70.6264 34.3764 70.2976 34.3153 70.0406 34.1893C69.7799 34.0632 69.5909 33.8914 69.4624 33.6736C69.3377 33.4559 69.2734 33.2076 69.2734 32.9326H69.4775C69.4775 33.1847 69.5342 33.4063 69.6476 33.5934C69.761 33.7806 69.931 33.9257 70.1616 34.0289C70.3921 34.132 70.6793 34.1816 71.027 34.1816C71.3483 34.1816 71.6241 34.1358 71.8471 34.0441C72.0701 33.9525 72.2402 33.8226 72.3535 33.6545C72.4669 33.4865 72.5274 33.2878 72.5274 33.0625C72.5274 32.776 72.4291 32.5277 72.2326 32.3253C72.0361 32.1229 71.73 32.0006 71.3105 31.9624L70.736 31.9128C70.3619 31.8784 70.0671 31.7562 69.8517 31.5499C69.6362 31.3436 69.5304 31.0686 69.5304 30.7287C69.5304 30.4957 69.5833 30.2856 69.6854 30.0946C69.7874 29.9036 69.9499 29.7509 70.1691 29.6324C70.3883 29.5179 70.668 29.4567 71.0081 29.4567C71.3483 29.4567 71.6506 29.5217 71.8774 29.6515C72.1041 29.7814 72.2742 29.9495 72.3838 30.1596C72.4934 30.3696 72.5501 30.5988 72.5501 30.8471H72.346C72.346 30.6332 72.3006 30.4346 72.2099 30.2512C72.1192 30.0679 71.9756 29.9227 71.7753 29.812C71.5788 29.7012 71.3218 29.6477 71.0081 29.6477C70.6944 29.6477 70.4639 29.6974 70.2749 29.7929C70.0898 29.8884 69.9499 30.0182 69.863 30.1825C69.7761 30.3467 69.7307 30.5262 69.7307 30.7249C69.7307 31.0228 69.8214 31.252 70.0028 31.42C70.1842 31.5881 70.4375 31.6874 70.7625 31.718L71.3369 31.7676C71.643 31.7944 71.9 31.8669 72.1041 31.9892C72.3082 32.1114 72.4669 32.2642 72.569 32.4513C72.6748 32.6347 72.7239 32.8409 72.7239 33.0625C72.7239 33.3108 72.6597 33.5361 72.5312 33.7347C72.4027 33.9334 72.2099 34.09 71.9605 34.2046C71.7111 34.3192 71.3974 34.3764 71.0232 34.3764H71.027Z" fill="black"/>
<path d="M74.8246 34.3612C74.6167 34.3612 74.424 34.323 74.2463 34.2428C74.0687 34.1625 73.9289 34.048 73.8268 33.8914C73.721 33.7386 73.6719 33.5476 73.6719 33.326C73.6719 33.1236 73.721 32.9479 73.8155 32.7989C73.91 32.65 74.0498 32.5316 74.2274 32.4513C74.4051 32.3711 74.6205 32.3291 74.8775 32.3291H75.9923V32.5086H74.8397C74.5298 32.5086 74.2917 32.585 74.1254 32.734C73.9591 32.883 73.876 33.0854 73.876 33.3337C73.876 33.6011 73.9667 33.8073 74.1481 33.9601C74.3295 34.1091 74.56 34.1855 74.8359 34.1855C75.0135 34.1855 75.1874 34.1511 75.3574 34.0823C75.5275 34.0136 75.6711 33.8952 75.7883 33.7309C75.9054 33.5667 75.9697 33.3451 75.9772 33.0663L76.0793 33.1694C76.0717 33.4406 76.0075 33.666 75.8865 33.8417C75.7694 34.0212 75.6144 34.1511 75.4292 34.2389C75.2441 34.3268 75.04 34.3688 74.8208 34.3688L74.8246 34.3612ZM76.015 34.2733V33.2687H75.9772V32.0083C75.9772 31.7218 75.9016 31.4964 75.7505 31.3322C75.5993 31.1679 75.3423 31.0877 74.9757 31.0877C74.8661 31.0877 74.7565 31.0877 74.6469 31.0992C74.5373 31.1068 74.4353 31.1145 74.3408 31.1221C74.2463 31.1297 74.1556 31.1412 74.0763 31.1527V30.9579C74.1594 30.9464 74.2501 30.9349 74.337 30.9235C74.4277 30.912 74.5147 30.9044 74.6091 30.9006C74.6998 30.8967 74.7868 30.8929 74.8737 30.8929C75.2063 30.8929 75.4632 30.9388 75.6522 31.0266C75.8412 31.1183 75.9772 31.2482 76.0566 31.42C76.136 31.5919 76.1775 31.8058 76.1775 32.0579V34.2733H76.0112H76.015Z" fill="black"/>
<path d="M77.0078 29.7661V29.5713H77.7334V29.7661H77.0078ZM77.5331 34.2733V29.5713H77.7372V34.2733H77.5331Z" fill="black"/>
<path d="M80.4417 34.3765C80.1659 34.3765 79.924 34.3268 79.7199 34.2275C79.5158 34.1282 79.3495 33.9945 79.2173 33.8264C79.085 33.6584 78.9867 33.4674 78.9225 33.2535C78.8582 33.0396 78.8242 32.8219 78.8242 32.6003V32.5621C78.8242 32.3444 78.8582 32.1305 78.9225 31.9242C78.9867 31.718 79.0888 31.5308 79.221 31.3628C79.3533 31.1947 79.5196 31.0648 79.7199 30.9655C79.9164 30.87 80.147 30.8204 80.404 30.8204C80.7252 30.8204 81.0011 30.8968 81.2278 31.0457C81.4546 31.1947 81.6284 31.3895 81.7494 31.6301C81.8703 31.8708 81.9308 32.119 81.9308 32.3864V32.5927H78.93V32.3979H81.8212L81.738 32.4628C81.738 32.1916 81.6851 31.9472 81.5793 31.7294C81.4735 31.5117 81.3185 31.336 81.122 31.2061C80.9217 31.0763 80.6836 31.0113 80.404 31.0113C80.0978 31.0113 79.8408 31.0839 79.6368 31.2291C79.4289 31.3742 79.274 31.5652 79.1719 31.802C79.0661 32.0388 79.017 32.2947 79.017 32.5736C79.017 32.8524 79.0699 33.1198 79.1719 33.3642C79.274 33.6049 79.4327 33.8035 79.6443 33.9525C79.856 34.1014 80.1205 34.1778 80.4455 34.1778C80.7932 34.1778 81.0729 34.0938 81.2883 33.9295C81.4999 33.7653 81.6322 33.5629 81.6814 33.326H81.8854C81.8439 33.5285 81.7569 33.708 81.6322 33.8646C81.5037 34.0212 81.3412 34.1435 81.1447 34.2351C80.9482 34.3268 80.7139 34.3688 80.4455 34.3688L80.4417 34.3765Z" fill="black"/>
<path d="M83.8996 34.3612C83.4952 34.3612 83.1891 34.2657 82.9737 34.0747C82.7621 33.8837 82.6562 33.6431 82.6562 33.3566H82.8603C82.8603 33.5781 82.9435 33.7691 83.106 33.9295C83.2685 34.09 83.533 34.1664 83.8996 34.1664C84.2662 34.1664 84.5308 34.0862 84.6933 33.9257C84.8558 33.7653 84.9389 33.5743 84.9389 33.3566C84.9389 33.1389 84.8596 32.9708 84.6971 32.8562C84.5345 32.7416 84.3342 32.6691 84.0924 32.6423L83.6842 32.5965C83.4083 32.5621 83.1929 32.4704 83.0342 32.3253C82.8754 32.1801 82.7999 31.9853 82.7999 31.7447C82.7999 31.5766 82.8414 31.4239 82.9284 31.2825C83.0153 31.1412 83.14 31.0304 83.3063 30.9426C83.4726 30.8585 83.6729 30.8127 83.9034 30.8127C84.2322 30.8127 84.4968 30.8967 84.7008 31.0686C84.9049 31.2405 85.007 31.4621 85.007 31.7371H84.8029C84.8067 31.527 84.7311 31.3513 84.5723 31.2138C84.4136 31.0763 84.1906 31.0037 83.9034 31.0037C83.5935 31.0037 83.3668 31.0801 83.2231 31.2291C83.0795 31.378 83.0077 31.5537 83.0077 31.7523C83.0077 31.9166 83.0682 32.0579 83.1853 32.1801C83.3025 32.3024 83.4801 32.3749 83.7069 32.4017L84.1151 32.4475C84.4023 32.4781 84.6479 32.5659 84.8482 32.7149C85.0485 32.8639 85.1468 33.0778 85.1468 33.3604C85.1468 33.5399 85.0977 33.7042 85.0032 33.857C84.9087 34.0098 84.7689 34.1282 84.5875 34.216C84.4061 34.3077 84.1793 34.3497 83.9072 34.3497L83.8996 34.3612Z" fill="black"/>
<path d="M93.3294 34.3764C92.9326 34.3764 92.5925 34.3039 92.3053 34.1587C92.0142 34.0136 91.7799 33.8226 91.591 33.582C91.402 33.3451 91.2659 33.0816 91.1752 32.7951C91.0845 32.5086 91.043 32.2298 91.043 31.9548V31.8784C91.043 31.5805 91.0883 31.2902 91.179 31.0037C91.2697 30.7172 91.4096 30.4537 91.5947 30.2207C91.7837 29.9877 92.0142 29.8005 92.2939 29.663C92.5736 29.5255 92.9024 29.4567 93.2765 29.4567C93.6507 29.4567 93.9568 29.5255 94.2402 29.6592C94.5237 29.7929 94.7467 29.9839 94.9205 30.2283C95.0944 30.4728 95.2002 30.7592 95.238 31.0839H95.0339C94.9961 30.7783 94.8941 30.5186 94.7353 30.3047C94.5728 30.0908 94.3687 29.9266 94.1155 29.8158C93.8623 29.705 93.5826 29.6477 93.2765 29.6477C92.9439 29.6477 92.6529 29.7088 92.3997 29.8311C92.1465 29.9533 91.9349 30.1214 91.761 30.3314C91.5872 30.5453 91.4587 30.786 91.3718 31.0572C91.2848 31.3284 91.2395 31.6148 91.2395 31.909C91.2395 32.184 91.2811 32.4552 91.368 32.7264C91.4549 32.9976 91.5834 33.242 91.7535 33.4559C91.9273 33.6736 92.1427 33.8455 92.4035 33.9792C92.6643 34.1091 92.9704 34.174 93.3257 34.174C93.8018 34.174 94.2024 34.048 94.5275 33.7997C94.8525 33.5514 95.0528 33.1962 95.1284 32.7378H95.3324C95.2833 33.0625 95.1662 33.349 94.9885 33.5934C94.8109 33.8379 94.5804 34.0289 94.3007 34.1625C94.021 34.2962 93.696 34.365 93.3257 34.365L93.3294 34.3764Z" fill="black"/>
<path d="M97.7246 34.3765C97.4525 34.3765 97.2106 34.3268 97.0028 34.2237C96.7949 34.1205 96.6173 33.9868 96.4737 33.8226C96.3301 33.6545 96.2243 33.4674 96.1487 33.2573C96.0731 33.0472 96.0391 32.8371 96.0391 32.6156V32.5774C96.0391 32.3559 96.0769 32.1381 96.1524 31.9281C96.228 31.718 96.3414 31.5308 96.485 31.3628C96.6286 31.1985 96.8063 31.0648 97.0141 30.9655C97.222 30.8662 97.4601 30.8165 97.7284 30.8165C97.9967 30.8165 98.2348 30.8662 98.4427 30.9655C98.6505 31.0648 98.8282 31.1947 98.9718 31.3628C99.1154 31.527 99.225 31.7142 99.3044 31.9281C99.3799 32.1381 99.4177 32.3559 99.4177 32.5774V32.6156C99.4177 32.8333 99.3799 33.0472 99.3081 33.2573C99.2325 33.4674 99.1267 33.6545 98.9831 33.8226C98.8395 33.9907 98.6657 34.1244 98.454 34.2237C98.2424 34.323 98.0043 34.3765 97.7322 34.3765H97.7246ZM97.7246 34.1817C98.0459 34.1817 98.318 34.1053 98.5372 33.9563C98.7564 33.8073 98.9226 33.6125 99.036 33.3719C99.1494 33.1312 99.2099 32.8753 99.2099 32.6003C99.2099 32.3253 99.1532 32.0541 99.036 31.8135C98.9189 31.5728 98.7488 31.378 98.5296 31.2329C98.3104 31.0877 98.0421 31.0152 97.7284 31.0152C97.4147 31.0152 97.1502 31.0877 96.9272 31.2329C96.7042 31.378 96.5341 31.5728 96.417 31.8135C96.2998 32.0541 96.2431 32.3138 96.2431 32.6003C96.2431 32.8868 96.2998 33.1312 96.417 33.3719C96.5341 33.6125 96.7004 33.8073 96.9196 33.9563C97.1388 34.1053 97.4109 34.1817 97.7284 34.1817H97.7246Z" fill="black"/>
<path d="M100.496 34.2733V30.9235H100.662V32.2642H100.587C100.587 31.9892 100.636 31.7447 100.734 31.5308C100.832 31.3169 100.976 31.145 101.165 31.0228C101.354 30.8967 101.588 30.8356 101.868 30.8356H101.879C102.295 30.8356 102.612 30.9655 102.824 31.2291C103.036 31.4926 103.145 31.8364 103.145 32.2642V34.2733H102.941V32.2107C102.941 31.8593 102.851 31.5728 102.665 31.3551C102.48 31.1374 102.212 31.0266 101.86 31.0266C101.509 31.0266 101.222 31.1374 101.014 31.3627C100.806 31.5843 100.7 31.8784 100.7 32.2374V34.2733H100.496Z" fill="black"/>
<path d="M105.435 34.3612C105.031 34.3612 104.724 34.2657 104.513 34.0747C104.301 33.8837 104.195 33.6431 104.195 33.3566H104.399C104.399 33.5781 104.483 33.7691 104.645 33.9295C104.808 34.09 105.072 34.1664 105.439 34.1664C105.805 34.1664 106.07 34.0862 106.232 33.9257C106.395 33.7653 106.478 33.5743 106.478 33.3566C106.478 33.1389 106.399 32.9708 106.236 32.8562C106.074 32.7416 105.873 32.6691 105.631 32.6423L105.223 32.5965C104.947 32.5621 104.732 32.4704 104.573 32.3253C104.415 32.1801 104.339 31.9853 104.339 31.7447C104.339 31.5766 104.38 31.4239 104.467 31.2825C104.551 31.1412 104.679 31.0304 104.842 30.9426C105.008 30.8585 105.208 30.8127 105.439 30.8127C105.767 30.8127 106.032 30.8967 106.236 31.0686C106.44 31.2405 106.542 31.4621 106.542 31.7371H106.338C106.342 31.527 106.266 31.3513 106.108 31.2138C105.949 31.0763 105.726 31.0037 105.439 31.0037C105.129 31.0037 104.902 31.0801 104.758 31.2291C104.615 31.378 104.543 31.5537 104.543 31.7523C104.543 31.9166 104.603 32.0579 104.721 32.1801C104.838 32.3024 105.015 32.3749 105.242 32.4017L105.65 32.4475C105.938 32.4781 106.183 32.5659 106.384 32.7149C106.584 32.8639 106.682 33.0778 106.682 33.3604C106.682 33.5399 106.633 33.7042 106.538 33.857C106.444 34.0098 106.304 34.1282 106.123 34.216C105.941 34.3077 105.715 34.3497 105.442 34.3497L105.435 34.3612Z" fill="black"/>
<path d="M107.188 31.103V30.9235H109.353V31.103H107.188ZM108.786 34.3039C108.601 34.3039 108.435 34.2733 108.291 34.216C108.147 34.1587 108.038 34.0594 107.958 33.9219C107.879 33.7844 107.841 33.6011 107.841 33.3757V29.789H108.045V33.4292C108.045 33.6469 108.106 33.815 108.223 33.9334C108.34 34.0518 108.506 34.1091 108.722 34.1091H109.353V34.3039H108.786Z" fill="black"/>
<path d="M110.398 34.2733V30.9235H110.565V32.3597H110.5C110.5 31.8746 110.606 31.5079 110.822 31.2634C111.037 31.019 111.4 30.8967 111.91 30.8967H112.02V31.0915H111.861C111.442 31.0915 111.124 31.1985 110.916 31.4086C110.708 31.6187 110.603 31.9395 110.603 32.3597V34.2733H110.398Z" fill="black"/>
<path d="M114.01 34.3612C113.606 34.3612 113.303 34.2313 113.099 33.9716C112.895 33.7118 112.793 33.3757 112.793 32.9555V30.9197H112.997V33.0052C112.997 33.3451 113.084 33.624 113.258 33.8379C113.432 34.0518 113.689 34.1625 114.029 34.1625C114.369 34.1625 114.649 34.0518 114.845 33.8302C115.042 33.6087 115.14 33.326 115.14 32.9785V30.9158H115.344V34.2657H115.178V32.9517H115.253C115.253 33.2191 115.208 33.4559 115.117 33.6698C115.027 33.8837 114.89 34.048 114.709 34.1702C114.528 34.2924 114.301 34.3535 114.025 34.3535H114.014L114.01 34.3612Z" fill="black"/>
<path d="M118.066 34.3765C117.798 34.3765 117.564 34.3268 117.364 34.2237C117.163 34.1205 116.993 33.9868 116.853 33.815C116.714 33.6431 116.611 33.4521 116.543 33.242C116.475 33.0319 116.441 32.818 116.441 32.5965V32.5583C116.441 32.3406 116.475 32.1267 116.543 31.9166C116.611 31.7103 116.714 31.5232 116.85 31.3551C116.986 31.1909 117.156 31.0572 117.36 30.9617C117.564 30.8662 117.798 30.8165 118.066 30.8165C118.335 30.8165 118.562 30.8624 118.766 30.9579C118.966 31.0534 119.136 31.187 119.265 31.3589C119.397 31.5308 119.484 31.7371 119.525 31.9777H119.321C119.276 31.6989 119.144 31.4697 118.928 31.2864C118.713 31.103 118.426 31.0113 118.066 31.0113C117.749 31.0113 117.484 31.0839 117.273 31.2252C117.061 31.3704 116.906 31.5614 116.8 31.7982C116.695 32.035 116.645 32.2947 116.645 32.5736C116.645 32.8524 116.698 33.1083 116.804 33.3528C116.91 33.5972 117.069 33.7959 117.28 33.9487C117.492 34.1014 117.753 34.1778 118.066 34.1778C118.308 34.1778 118.524 34.132 118.709 34.0441C118.898 33.9525 119.049 33.8341 119.166 33.6813C119.283 33.5285 119.351 33.3642 119.374 33.1885H119.578C119.544 33.4254 119.457 33.6316 119.317 33.8073C119.178 33.983 119 34.1205 118.785 34.2237C118.569 34.3268 118.331 34.3765 118.066 34.3765Z" fill="black"/>
<path d="M119.969 31.103V30.9235H122.134V31.103H119.969ZM121.567 34.3039C121.382 34.3039 121.216 34.2733 121.072 34.216C120.929 34.1587 120.819 34.0594 120.74 33.9219C120.66 33.7844 120.623 33.6011 120.623 33.3757V29.789H120.827V33.4292C120.827 33.6469 120.887 33.815 121.004 33.9334C121.121 34.0518 121.288 34.1091 121.503 34.1091H122.134V34.3039H121.567Z" fill="black"/>
<path d="M122.797 31.1183V30.9235H123.575V31.1183H122.797ZM123.334 30.1366C123.265 30.1366 123.213 30.1175 123.175 30.0793C123.137 30.0412 123.118 29.9877 123.118 29.9266C123.118 29.8654 123.137 29.8158 123.175 29.7738C123.213 29.7318 123.269 29.7127 123.341 29.7127C123.409 29.7127 123.462 29.7318 123.496 29.7738C123.53 29.8158 123.549 29.8654 123.549 29.9266C123.549 29.9915 123.53 30.0412 123.496 30.0793C123.462 30.1175 123.405 30.1366 123.334 30.1366ZM123.371 34.2733V30.9235H123.575V34.2733H123.371Z" fill="black"/>
<path d="M126.361 34.3765C126.089 34.3765 125.847 34.3268 125.639 34.2237C125.428 34.1244 125.254 33.9868 125.11 33.8226C124.967 33.6584 124.861 33.4674 124.785 33.2573C124.71 33.0472 124.676 32.8371 124.676 32.6156V32.5774C124.676 32.3559 124.714 32.1381 124.789 31.9281C124.865 31.718 124.978 31.5308 125.122 31.3628C125.265 31.1985 125.443 31.0648 125.651 30.9655C125.859 30.8662 126.097 30.8165 126.365 30.8165C126.633 30.8165 126.872 30.8662 127.079 30.9655C127.287 31.0648 127.465 31.1947 127.608 31.3628C127.752 31.527 127.862 31.7142 127.941 31.9281C128.02 32.142 128.054 32.3559 128.054 32.5774V32.6156C128.054 32.8333 128.017 33.0472 127.945 33.2573C127.869 33.4674 127.763 33.6545 127.62 33.8226C127.476 33.9907 127.302 34.1244 127.091 34.2237C126.879 34.323 126.641 34.3765 126.369 34.3765H126.361ZM126.361 34.1817C126.683 34.1817 126.955 34.1053 127.174 33.9563C127.393 33.8073 127.559 33.6125 127.673 33.3719C127.786 33.1312 127.847 32.8753 127.847 32.6003C127.847 32.3253 127.786 32.0541 127.673 31.8135C127.556 31.5728 127.386 31.378 127.166 31.2329C126.947 31.0877 126.679 31.0152 126.365 31.0152C126.051 31.0152 125.787 31.0877 125.564 31.2329C125.341 31.378 125.171 31.5728 125.054 31.8135C124.937 32.0541 124.88 32.3138 124.88 32.6003C124.88 32.8868 124.937 33.1312 125.054 33.3719C125.167 33.6125 125.337 33.8073 125.556 33.9563C125.776 34.1053 126.048 34.1817 126.365 34.1817H126.361Z" fill="black"/>
<path d="M129.129 34.2733V30.9235H129.295V32.2642H129.22C129.22 31.9892 129.269 31.7447 129.367 31.5308C129.465 31.3169 129.609 31.145 129.798 31.0228C129.987 30.8967 130.221 30.8356 130.501 30.8356H130.512C130.928 30.8356 131.245 30.9655 131.457 31.2291C131.669 31.4926 131.778 31.8364 131.778 32.2642V34.2733H131.574V32.2107C131.574 31.8593 131.483 31.5728 131.298 31.3551C131.113 31.1374 130.845 31.0266 130.493 31.0266C130.142 31.0266 129.855 31.1374 129.647 31.3627C129.439 31.5843 129.333 31.8784 129.333 32.2374V34.2733H129.129Z" fill="black"/>
<path d="M136.261 34.3764C135.861 34.3764 135.532 34.3153 135.275 34.1893C135.014 34.0632 134.825 33.8914 134.697 33.6736C134.572 33.4559 134.508 33.2076 134.508 32.9326H134.712C134.712 33.1847 134.769 33.4063 134.882 33.5934C134.995 33.7806 135.165 33.9257 135.396 34.0289C135.626 34.132 135.914 34.1816 136.261 34.1816C136.583 34.1816 136.859 34.1358 137.081 34.0441C137.304 33.9525 137.475 33.8226 137.588 33.6545C137.701 33.4865 137.762 33.2878 137.762 33.0625C137.762 32.776 137.664 32.5277 137.467 32.3253C137.27 32.1229 136.964 32.0006 136.545 31.9624L135.97 31.9128C135.596 31.8784 135.301 31.7562 135.086 31.5499C134.871 31.3436 134.765 31.0686 134.765 30.7287C134.765 30.4957 134.818 30.2856 134.92 30.0946C135.022 29.9036 135.184 29.7509 135.403 29.6324C135.623 29.5179 135.902 29.4567 136.242 29.4567C136.583 29.4567 136.885 29.5217 137.112 29.6515C137.338 29.7814 137.509 29.9495 137.618 30.1596C137.728 30.3696 137.784 30.5988 137.784 30.8471H137.58C137.58 30.6332 137.535 30.4346 137.444 30.2512C137.354 30.0679 137.21 29.9227 137.01 29.812C136.813 29.7012 136.556 29.6477 136.242 29.6477C135.929 29.6477 135.698 29.6974 135.509 29.7929C135.324 29.8884 135.184 30.0182 135.097 30.1825C135.01 30.3467 134.965 30.5262 134.965 30.7249C134.965 31.0228 135.056 31.252 135.237 31.42C135.419 31.5881 135.672 31.6874 135.997 31.718L136.571 31.7676C136.877 31.7944 137.134 31.8669 137.338 31.9892C137.543 32.1114 137.701 32.2642 137.803 32.4513C137.909 32.6347 137.958 32.8409 137.958 33.0625C137.958 33.3108 137.894 33.5361 137.766 33.7347C137.637 33.9334 137.444 34.09 137.195 34.2046C136.945 34.3192 136.632 34.3764 136.258 34.3764H136.261Z" fill="black"/>
<path d="M140.535 34.3765C140.259 34.3765 140.018 34.3268 139.814 34.2275C139.609 34.1282 139.443 33.9945 139.311 33.8264C139.179 33.6584 139.08 33.4674 139.012 33.2535C138.948 33.0396 138.914 32.8219 138.914 32.6003V32.5621C138.914 32.3444 138.948 32.1305 139.012 31.9242C139.077 31.718 139.179 31.5308 139.311 31.3628C139.443 31.1947 139.609 31.0648 139.806 30.9655C140.002 30.87 140.233 30.8204 140.49 30.8204C140.811 30.8204 141.087 30.8968 141.314 31.0457C141.541 31.1947 141.714 31.3895 141.835 31.6301C141.956 31.8708 142.017 32.119 142.017 32.3864V32.5927H139.016V32.3979H141.907L141.824 32.4628C141.824 32.1916 141.771 31.9472 141.665 31.7294C141.56 31.5117 141.405 31.336 141.208 31.2061C141.008 31.0763 140.77 31.0113 140.486 31.0113C140.18 31.0113 139.923 31.0839 139.719 31.2291C139.515 31.3742 139.356 31.5652 139.254 31.802C139.152 32.0388 139.099 32.2947 139.099 32.5736C139.099 32.8524 139.152 33.1198 139.254 33.3642C139.356 33.6087 139.515 33.8035 139.727 33.9525C139.938 34.1014 140.203 34.1778 140.528 34.1778C140.876 34.1778 141.155 34.0938 141.371 33.9295C141.582 33.7653 141.715 33.5629 141.767 33.326H141.971C141.93 33.5285 141.843 33.708 141.718 33.8646C141.59 34.0212 141.427 34.1435 141.231 34.2351C141.034 34.3268 140.8 34.3688 140.532 34.3688L140.535 34.3765Z" fill="black"/>
<path d="M143.047 34.2733V30.9235H143.213V32.3597H143.149C143.149 31.8746 143.255 31.5079 143.47 31.2634C143.686 31.019 144.048 30.8967 144.559 30.8967H144.668V31.0915H144.509C144.09 31.0915 143.772 31.1985 143.565 31.4086C143.357 31.6187 143.251 31.9395 143.251 32.3597V34.2733H143.047Z" fill="black"/>
<path d="M146.443 34.2733L145.199 30.9235H145.411L146.647 34.2733H146.443ZM146.518 34.2733V34.0785H146.851V34.2733H146.518ZM146.715 34.2733L147.822 30.9235H148.026L146.911 34.2733H146.715Z" fill="black"/>
<path d="M148.602 31.1183V30.9235H149.38V31.1183H148.602ZM149.138 30.1366C149.07 30.1366 149.017 30.1175 148.979 30.0793C148.942 30.0412 148.923 29.9877 148.923 29.9266C148.923 29.8654 148.942 29.8158 148.979 29.7738C149.017 29.7318 149.074 29.7127 149.146 29.7127C149.214 29.7127 149.267 29.7318 149.301 29.7738C149.335 29.8158 149.354 29.8654 149.354 29.9266C149.354 29.9915 149.335 30.0412 149.301 30.0793C149.267 30.1175 149.21 30.1366 149.138 30.1366ZM149.176 34.2733V30.9235H149.38V34.2733H149.176Z" fill="black"/>
<path d="M152.102 34.3765C151.833 34.3765 151.599 34.3268 151.399 34.2237C151.198 34.1205 151.028 33.9868 150.889 33.815C150.749 33.6431 150.647 33.4521 150.579 33.242C150.511 33.0319 150.477 32.818 150.477 32.5965V32.5583C150.477 32.3406 150.511 32.1267 150.579 31.9166C150.647 31.7103 150.749 31.5232 150.885 31.3551C151.021 31.1909 151.191 31.0572 151.395 30.9617C151.599 30.8662 151.833 30.8165 152.102 30.8165C152.37 30.8165 152.597 30.8624 152.801 30.9579C153.001 31.0534 153.171 31.187 153.3 31.3589C153.432 31.5308 153.519 31.7371 153.56 31.9777H153.356C153.311 31.6989 153.179 31.4697 152.963 31.2864C152.748 31.103 152.461 31.0113 152.102 31.0113C151.784 31.0113 151.52 31.0839 151.308 31.2252C151.096 31.3704 150.941 31.5614 150.836 31.7982C150.73 32.035 150.681 32.2947 150.681 32.5736C150.681 32.8524 150.734 33.1083 150.839 33.3528C150.945 33.5972 151.104 33.7959 151.316 33.9487C151.527 34.1014 151.788 34.1778 152.102 34.1778C152.344 34.1778 152.559 34.132 152.744 34.0441C152.933 33.9525 153.084 33.8341 153.201 33.6813C153.319 33.5285 153.387 33.3642 153.409 33.1885H153.613C153.579 33.4254 153.492 33.6316 153.353 33.8073C153.213 33.983 153.035 34.1205 152.82 34.2237C152.604 34.3268 152.366 34.3765 152.102 34.3765Z" fill="black"/>
<path d="M155.918 34.3765C155.642 34.3765 155.4 34.3268 155.196 34.2275C154.992 34.1282 154.826 33.9945 154.694 33.8264C154.561 33.6584 154.463 33.4674 154.395 33.2535C154.331 33.0396 154.297 32.8219 154.297 32.6003V32.5621C154.297 32.3444 154.331 32.1305 154.395 31.9242C154.459 31.718 154.561 31.5308 154.694 31.3628C154.826 31.1947 154.992 31.0648 155.189 30.9655C155.385 30.87 155.616 30.8204 155.873 30.8204C156.194 30.8204 156.47 30.8968 156.697 31.0457C156.923 31.1947 157.097 31.3895 157.218 31.6301C157.339 31.8708 157.4 32.119 157.4 32.3864V32.5927H154.399V32.3979H157.29L157.207 32.4628C157.207 32.1916 157.154 31.9472 157.048 31.7294C156.942 31.5117 156.787 31.336 156.591 31.2061C156.391 31.0763 156.153 31.0113 155.869 31.0113C155.563 31.0113 155.306 31.0839 155.102 31.2291C154.898 31.3742 154.739 31.5652 154.637 31.802C154.535 32.0388 154.482 32.2947 154.482 32.5736C154.482 32.8524 154.535 33.1198 154.637 33.3642C154.739 33.6087 154.898 33.8035 155.109 33.9525C155.321 34.1014 155.586 34.1778 155.911 34.1778C156.258 34.1778 156.538 34.0938 156.753 33.9295C156.965 33.7653 157.097 33.5629 157.15 33.326H157.354C157.313 33.5285 157.226 33.708 157.101 33.8646C156.973 34.0212 156.81 34.1435 156.614 34.2351C156.417 34.3268 156.183 34.3688 155.914 34.3688L155.918 34.3765Z" fill="black"/>
<path d="M159.376 34.3612C158.972 34.3612 158.666 34.2657 158.454 34.0747C158.243 33.8837 158.137 33.6431 158.137 33.3566H158.341C158.341 33.5781 158.424 33.7691 158.586 33.9295C158.749 34.09 159.014 34.1664 159.38 34.1664C159.747 34.1664 160.011 34.0862 160.174 33.9257C160.336 33.7653 160.419 33.5743 160.419 33.3566C160.419 33.1389 160.34 32.9708 160.178 32.8562C160.015 32.7416 159.815 32.6691 159.573 32.6423L159.165 32.5965C158.889 32.5621 158.673 32.4704 158.515 32.3253C158.356 32.1801 158.28 31.9853 158.28 31.7447C158.28 31.5766 158.322 31.4239 158.409 31.2825C158.492 31.1412 158.62 31.0304 158.787 30.9426C158.953 30.8585 159.153 30.8127 159.384 30.8127C159.713 30.8127 159.977 30.8967 160.181 31.0686C160.385 31.2405 160.487 31.4621 160.487 31.7371H160.283C160.287 31.527 160.212 31.3513 160.053 31.2138C159.894 31.0763 159.671 31.0037 159.384 31.0037C159.074 31.0037 158.847 31.0801 158.704 31.2291C158.56 31.378 158.488 31.5537 158.488 31.7523C158.488 31.9166 158.549 32.0579 158.666 32.1801C158.783 32.3024 158.961 32.3749 159.187 32.4017L159.596 32.4475C159.883 32.4781 160.128 32.5659 160.329 32.7149C160.529 32.8639 160.627 33.0778 160.627 33.3604C160.627 33.5399 160.578 33.7042 160.484 33.857C160.389 34.0059 160.249 34.1282 160.068 34.216C159.887 34.3077 159.66 34.3497 159.388 34.3497L159.376 34.3612Z" fill="black"/>
<path d="M65.0234 30.2551V34.3764" stroke="#5459A7" stroke-width="0.5" stroke-miterlimit="10"/>
<path d="M88.3789 30.2551V34.3764" stroke="#5459A7" stroke-width="0.5" stroke-miterlimit="10"/>
</g>
<defs>
<linearGradient id="paint0_linear_476_1802" x1="-0.000678301" y1="27.7761" x2="27.7732" y2="27.7761" gradientUnits="userSpaceOnUse">
<stop stop-color="#33CCFF"/>
<stop offset="1" stop-color="#5459A7"/>
</linearGradient>
<clipPath id="clip0_476_1802">
<rect width="203" height="46" fill="white" transform="translate(0 0.5)"/>
</clipPath>
</defs>
</svg>
